<svg version="1.1" id="Layer_1" xmlns="http://www.w3.org/2000/svg" xmlns:xlink="http://www.w3.org/1999/xlink" x="0px" y="0px"
	 width="100%" viewBox="0 0 1285 262" enable-background="new 0 0 1285 262" xml:space="preserve">
<path fill="#FEFFFF" opacity="1.000000" stroke="none" 
	d="
M1264.000000,263.000000 
	C842.666687,263.000000 421.833344,263.000000 1.000000,263.000000 
	C1.000000,175.666672 1.000000,88.333336 1.000000,1.000000 
	C429.333344,1.000000 857.666687,1.000000 1286.000000,1.000000 
	C1286.000000,88.333336 1286.000000,175.666672 1286.000000,263.000000 
	C1278.833374,263.000000 1271.666626,263.000000 1264.000000,263.000000 
M1217.145752,198.500061 
	C1217.145752,187.913834 1217.145752,177.327591 1217.145752,167.238480 
	C1217.440796,167.786011 1218.069214,168.927567 1218.675293,170.080994 
	C1227.497192,186.872910 1236.281128,203.685104 1245.198242,220.426315 
	C1245.957764,221.852341 1247.518433,223.698273 1248.847656,223.820648 
	C1253.416870,224.241211 1258.048462,223.982254 1262.732422,223.982254 
	C1262.732422,197.023483 1262.732422,170.679657 1262.732422,144.325745 
	C1257.737183,144.325745 1253.160278,144.325745 1247.651245,144.325745 
	C1248.202271,163.820114 1248.743530,182.961502 1249.291138,202.335007 
	C1248.447998,200.715759 1247.644409,199.150986 1246.822021,197.596222 
	C1237.955566,180.835556 1229.123535,164.056381 1220.148804,147.353928 
	C1219.405396,145.970596 1217.763062,144.274887 1216.413818,144.157394 
	C1211.840454,143.759262 1207.210938,144.005447 1202.496826,144.005447 
	C1202.496826,170.978058 1202.496826,197.329269 1202.496826,223.681229 
	C1207.491821,223.681229 1212.077271,223.681229 1217.145996,223.681229 
	C1217.145996,215.411133 1217.145996,207.455566 1217.145752,198.500061 
M387.104553,212.579102 
	C396.907104,198.526566 397.762451,183.079025 393.240723,167.262894 
	C388.588684,150.990829 375.977661,142.414139 358.835541,142.740494 
	C342.429138,143.052856 329.699554,152.539108 326.238159,168.843765 
	C324.482147,177.115463 324.184509,186.106293 325.316223,194.490051 
	C327.240387,208.744781 334.723022,219.891403 349.368225,223.911423 
	C363.706940,227.847366 376.665527,225.093811 387.104553,212.579102 
M108.137962,222.192444 
	C108.732849,222.794250 109.311752,223.898285 109.925179,223.917831 
	C114.536125,224.064682 119.153877,223.997864 124.167892,223.997864 
	C124.167892,213.817490 124.167892,204.083054 124.167892,193.944122 
	C126.033203,193.944122 127.527824,194.153992 128.942108,193.905884 
	C133.731415,193.065750 136.382767,194.968475 138.452515,199.424820 
	C141.876495,206.796936 145.993561,213.856476 150.033447,220.924911 
	C150.789246,222.247284 152.496628,223.769012 153.860596,223.867096 
	C158.783203,224.221039 163.746704,224.006271 169.443390,224.006271 
	C163.086075,212.818207 157.045944,202.188370 150.949875,191.460068 
	C152.086746,190.873093 153.127914,190.372452 154.134537,189.809998 
	C163.324539,184.675034 167.580933,174.946747 165.739365,163.316086 
	C164.183853,153.492111 157.797516,146.337326 147.225204,145.237885 
	C134.418777,143.906128 121.460487,144.034683 109.377182,143.562927 
	C108.432648,144.599442 108.223083,144.721970 108.222893,144.844803 
	C108.182861,170.310013 108.157600,195.775238 108.137962,222.192444 
M36.827984,219.738617 
	C54.648708,231.473709 84.916969,226.614868 90.898048,196.285370 
	C92.166801,189.851669 92.383789,183.003830 91.826141,176.454010 
	C89.863564,153.402267 72.829727,139.935883 49.991295,143.077362 
	C42.559517,144.099625 36.264687,147.646194 31.002151,153.113495 
	C16.406401,168.277176 16.851828,206.282761 36.827984,219.738617 
M511.260162,224.389420 
	C530.544800,228.480392 546.575684,220.316910 552.949646,202.804947 
	C557.292542,190.873077 557.446838,178.624084 553.615540,166.557938 
	C548.607727,150.786804 536.113464,142.368500 519.150818,142.744919 
	C503.119293,143.100677 491.224396,152.304153 486.787994,168.006256 
	C483.681641,179.000641 483.748535,190.114929 487.225037,200.951447 
	C490.936432,212.520187 498.270172,220.877533 511.260162,224.389420 
M1186.742432,179.869843 
	C1186.146484,176.263168 1185.794434,172.595596 1184.911621,169.060547 
	C1181.450439,155.199112 1170.289795,144.635864 1157.663086,143.036438 
	C1140.654053,140.881897 1127.270508,146.865891 1120.422363,160.263733 
	C1113.359375,174.081879 1113.279053,188.544312 1118.469360,202.889359 
	C1123.804565,217.635056 1134.905151,225.307571 1150.462524,225.483688 
	C1163.974121,225.636627 1176.287476,220.449921 1182.231812,205.043304 
	C1185.146240,197.489883 1185.367676,188.897461 1186.742432,179.869843 
M442.626251,144.811386 
	C432.260315,144.811386 421.894348,144.811386 411.597687,144.811386 
	C411.597687,171.066391 411.597687,197.432495 411.597687,223.952820 
	C420.726257,223.952820 429.552826,224.303940 438.341888,223.879242 
	C456.265381,223.013168 469.122131,211.907196 471.725739,194.691559 
	C472.706696,188.205170 472.681030,181.409149 472.024841,174.863510 
	C470.376587,158.422180 459.899261,147.769043 442.626251,144.811386 
M755.941040,144.242294 
	C746.366455,144.242294 736.791870,144.242294 727.220947,144.242294 
	C727.220947,171.026260 727.220947,197.254623 727.220947,223.799805 
	C736.965149,223.799805 746.472534,224.498413 755.835327,223.633331 
	C769.321899,222.387238 780.190063,215.973663 784.841858,202.672226 
	C787.142456,196.094025 787.935242,188.702652 787.971375,181.671799 
	C788.081299,160.301361 777.636047,148.219177 755.941040,144.242294 
M262.221405,163.470108 
	C262.221405,157.057617 262.221405,150.645142 262.221405,144.377213 
	C256.563354,144.377213 251.519852,144.377213 246.776825,144.377213 
	C246.776825,171.114365 246.776825,197.468399 246.776825,223.711639 
	C252.200302,223.711639 257.129028,223.711639 262.436096,223.711639 
	C262.436096,212.174515 262.436096,200.926208 262.436096,189.504211 
	C272.569458,189.504211 282.313141,189.504211 292.757385,189.504211 
	C292.757385,201.110703 292.757385,212.474777 292.757385,223.701935 
	C298.363831,223.701935 303.264313,223.701935 308.163239,223.701935 
	C308.163239,197.005325 308.163239,170.611404 308.163239,144.162201 
	C302.920410,144.162201 297.963196,144.162201 292.527771,144.162201 
	C292.527771,154.692810 292.527771,165.070175 292.527771,175.336609 
	C282.165771,175.336609 272.288483,175.336609 262.221405,175.336609 
	C262.221405,171.436050 262.221405,167.946869 262.221405,163.470108 
M819.147888,190.208664 
	C819.147888,174.959686 819.147888,159.710724 819.147888,144.322479 
	C813.727173,144.322479 808.995667,144.322479 803.757141,144.322479 
	C803.757141,159.251251 803.729553,173.860352 803.777222,188.469208 
	C803.788574,191.959976 803.694946,195.508118 804.254700,198.930923 
	C808.265442,223.454361 835.808350,234.616074 854.540894,219.278076 
	C862.347656,212.886032 864.683289,203.816162 864.994568,194.289520 
	C865.364075,182.981522 865.123901,171.653488 865.141541,160.334137 
	C865.149719,155.060928 865.142944,149.787689 865.142944,144.365692 
	C859.817078,144.365692 855.110535,144.365692 850.005188,144.365692 
	C850.005188,159.684067 850.075806,174.638474 849.954224,189.591309 
	C849.924744,193.222092 849.586304,196.917465 848.822937,200.460999 
	C847.309448,207.486450 842.061035,211.582703 834.923889,211.823792 
	C827.943115,212.059586 823.020935,208.573425 820.950500,201.422729 
	C819.988281,198.099426 819.734741,194.570938 819.147888,190.208664 
M953.515564,224.005066 
	C961.492493,224.005188 961.515381,224.011780 963.703247,216.407883 
	C964.577209,213.370346 965.408875,210.315445 966.104980,207.233475 
	C966.739624,204.423492 968.046875,202.981079 971.229797,203.099319 
	C977.220459,203.321869 983.229065,203.289307 989.222534,203.108688 
	C992.078430,203.022614 993.416504,204.033920 994.053345,206.826447 
	C995.161987,211.687866 996.496399,216.508453 998.010437,221.258759 
	C998.358765,222.351852 999.773804,223.810226 1000.771973,223.870407 
	C1005.390320,224.148773 1010.034729,223.993362 1015.126221,223.993362 
	C1014.687927,222.202927 1014.453796,220.926346 1014.063416,219.699524 
	C1007.503784,199.084671 1000.956360,178.465851 994.325378,157.873947 
	C992.856506,153.312546 992.311340,147.119141 989.095825,144.828201 
	C985.846863,142.513382 979.802979,144.232178 974.997192,143.950562 
	C972.048706,143.777771 970.707886,144.693588 969.756409,147.726624 
	C962.384583,171.226303 954.756287,194.645462 947.225708,218.095444 
	C946.678955,219.797989 946.276611,221.546890 945.608521,224.005081 
	C948.351318,224.005081 950.459717,224.005081 953.515564,224.005066 
M605.078796,177.794724 
	C610.989197,166.690994 616.899658,155.587250 623.003601,144.119965 
	C617.055298,144.119965 611.755554,144.119965 606.236206,144.119965 
	C601.963806,153.553162 597.685791,162.998810 593.121033,173.077469 
	C592.102783,171.124878 591.329773,169.730789 590.636353,168.298172 
	C587.158813,161.113266 583.782349,153.877396 580.159729,146.766769 
	C579.551086,145.572159 577.953064,144.192581 576.737000,144.117538 
	C571.844666,143.815781 566.922791,143.992630 561.339539,143.992630 
	C562.368652,145.980392 563.011414,147.275436 563.700867,148.545074 
	C569.336304,158.922424 575.097656,169.234634 580.502136,179.730713 
	C581.364868,181.406265 581.360535,184.256287 580.522095,185.953079 
	C576.988159,193.104950 572.967590,200.015411 569.161804,207.034149 
	C566.180908,212.531662 563.254150,218.058487 560.070251,224.007919 
	C564.939941,224.007919 569.113525,223.790161 573.250916,224.083115 
	C576.092773,224.284332 577.321289,223.132996 578.433472,220.704865 
	C582.577332,211.657776 586.947937,202.714554 591.475769,193.224472 
	C592.442200,195.075546 593.213318,196.489944 593.928284,197.932251 
	C597.768372,205.679443 601.521484,213.471375 605.500122,221.146530 
	C606.131226,222.363968 607.709534,223.800873 608.929382,223.877930 
	C613.852356,224.188828 618.806396,224.006805 624.331177,224.006805 
	C623.341736,222.061600 622.655212,220.603836 621.876038,219.197372 
	C616.153076,208.867355 610.633667,198.414322 604.559387,188.294601 
	C602.338318,184.594330 602.242126,181.719452 605.078796,177.794724 
M689.499634,143.997818 
	C679.897705,143.997818 670.295837,143.997818 660.882751,143.997818 
	C660.882751,170.967224 660.882751,197.295715 660.882751,223.656723 
	C677.658508,223.656723 693.725464,223.656723 709.791138,223.656723 
	C709.791138,219.264496 709.791138,215.231888 709.791138,210.842026 
	C699.703674,210.842026 690.061646,210.934296 680.425293,210.740906 
	C679.006653,210.712448 676.441223,209.391556 676.397461,208.563400 
	C676.059143,202.163086 676.211060,195.736877 676.211060,188.833344 
	C685.896973,188.833344 694.817810,188.833344 703.683533,188.833344 
	C703.683533,184.280579 703.683533,180.248062 703.683533,175.697800 
	C694.323364,175.697800 685.417542,175.697800 676.506287,175.697800 
	C676.506287,169.259262 676.506287,163.359146 676.506287,156.992065 
	C687.438416,156.992065 698.013184,156.992065 708.768555,156.992065 
	C708.768555,152.474792 708.768555,148.440582 708.768555,143.997818 
	C702.432129,143.997818 696.465759,143.997818 689.499634,143.997818 
M901.795105,146.119980 
	C894.419373,149.868271 888.878113,155.462051 885.212036,162.857666 
	C881.492554,170.360977 880.664795,178.384491 880.820984,186.664871 
	C881.245178,209.154037 893.754578,223.418823 916.044373,225.349792 
	C926.427795,226.249313 935.559021,222.498932 942.570251,213.546234 
	C939.852966,210.454102 937.263367,207.507263 934.518066,204.383179 
	C933.023254,205.420380 931.788330,206.229523 930.603760,207.106674 
	C918.534241,216.043182 904.170227,211.753510 899.254639,197.587357 
	C896.218872,188.838699 896.058105,179.893158 899.061462,171.118240 
	C904.153748,156.239929 918.235168,151.910217 930.874390,161.131104 
	C931.508423,161.593689 932.256165,161.900406 933.339172,162.491714 
	C936.016602,159.172760 938.562439,156.016922 941.055054,152.927032 
	C931.014282,142.247360 917.447388,139.884293 901.795105,146.119980 
M224.672653,157.257874 
	C227.447235,157.257874 230.221817,157.257874 233.063324,157.257874 
	C233.063324,152.587128 233.063324,148.464310 233.063324,144.367737 
	C212.692490,144.367737 192.488892,144.367737 172.339355,144.367737 
	C172.339355,148.691162 172.339355,152.636505 172.339355,157.191803 
	C179.764465,157.191803 186.998993,157.191803 194.891937,157.191803 
	C194.891937,179.813705 194.891937,201.828979 194.891937,223.736816 
	C200.500916,223.736816 205.425735,223.736816 210.847382,223.736816 
	C210.847382,201.425949 210.847382,179.379730 210.847382,157.257568 
	C215.490295,157.257568 219.626816,157.257568 224.672653,157.257874 
M1009.094055,150.506363 
	C1009.094055,152.587875 1009.094055,154.669403 1009.094055,157.162064 
	C1015.579834,157.162064 1021.240540,157.399307 1026.869995,157.082291 
	C1030.916260,156.854446 1031.963013,158.345917 1031.931396,162.224411 
	C1031.779297,180.863464 1031.893555,199.504654 1031.912964,218.145096 
	C1031.914795,219.921799 1031.913208,221.698502 1031.913208,223.735657 
	C1037.410645,223.735657 1042.309937,223.735657 1047.907959,223.735657 
	C1047.907959,201.473755 1047.907959,179.465546 1047.907959,156.915344 
	C1055.649048,156.915344 1062.703003,156.915344 1069.876221,156.915344 
	C1069.876221,152.435669 1069.876221,148.515411 1069.876221,144.340271 
	C1049.592407,144.340271 1029.577515,144.340271 1009.094238,144.340271 
	C1009.094238,146.309372 1009.094238,147.937698 1009.094055,150.506363 
M1099.146851,209.495300 
	C1099.146851,187.757248 1099.146851,166.019211 1099.146851,144.388657 
	C1093.358398,144.388657 1088.459106,144.388657 1083.554443,144.388657 
	C1083.554443,171.033463 1083.554443,197.281967 1083.554443,223.685959 
	C1088.844482,223.685959 1093.747437,223.685959 1099.146973,223.685959 
	C1099.146973,219.081375 1099.146973,214.786713 1099.146851,209.495300 
z"/>
<path fill="#6EADF0" opacity="1.000000" stroke="none" 
	d="
M1217.145874,199.000031 
	C1217.145996,207.455566 1217.145996,215.411133 1217.145996,223.681229 
	C1212.077271,223.681229 1207.491821,223.681229 1202.496826,223.681229 
	C1202.496826,197.329269 1202.496826,170.978058 1202.496826,144.005447 
	C1207.210938,144.005447 1211.840454,143.759262 1216.413818,144.157394 
	C1217.763062,144.274887 1219.405396,145.970596 1220.148804,147.353928 
	C1229.123535,164.056381 1237.955566,180.835556 1246.822021,197.596222 
	C1247.644409,199.150986 1248.447998,200.715759 1249.291138,202.335007 
	C1248.743530,182.961502 1248.202271,163.820114 1247.651245,144.325745 
	C1253.160278,144.325745 1257.737183,144.325745 1262.732422,144.325745 
	C1262.732422,170.679657 1262.732422,197.023483 1262.732422,223.982254 
	C1258.048462,223.982254 1253.416870,224.241211 1248.847656,223.820648 
	C1247.518433,223.698273 1245.957764,221.852341 1245.198242,220.426315 
	C1236.281128,203.685104 1227.497192,186.872910 1218.675293,170.080994 
	C1218.069214,168.927567 1217.440796,167.786011 1217.145752,167.238480 
	C1217.145752,177.327591 1217.145752,187.913834 1217.145874,199.000031 
z"/>
<path fill="#050505" opacity="1.000000" stroke="none" 
	d="
M386.912292,212.880981 
	C376.665527,225.093811 363.706940,227.847366 349.368225,223.911423 
	C334.723022,219.891403 327.240387,208.744781 325.316223,194.490051 
	C324.184509,186.106293 324.482147,177.115463 326.238159,168.843765 
	C329.699554,152.539108 342.429138,143.052856 358.835541,142.740494 
	C375.977661,142.414139 388.588684,150.990829 393.240723,167.262894 
	C397.762451,183.079025 396.907104,198.526566 386.912292,212.880981 
M355.648193,211.075806 
	C364.273560,212.975891 371.623016,209.814835 375.461029,201.687164 
	C380.846924,190.281616 380.908661,178.483368 375.999786,166.887299 
	C373.084473,160.000565 367.399567,156.192627 359.958069,156.197388 
	C352.308624,156.202301 346.597290,160.111694 343.697418,167.273926 
	C339.188385,178.410721 339.406403,189.683807 343.918945,200.774246 
	C345.944061,205.751343 349.608185,209.297699 355.648193,211.075806 
z"/>
<path fill="#040404" opacity="1.000000" stroke="none" 
	d="
M108.134911,221.716461 
	C108.157600,195.775238 108.182861,170.310013 108.222893,144.844803 
	C108.223083,144.721970 108.432648,144.599442 109.377182,143.562927 
	C121.460487,144.034683 134.418777,143.906128 147.225204,145.237885 
	C157.797516,146.337326 164.183853,153.492111 165.739365,163.316086 
	C167.580933,174.946747 163.324539,184.675034 154.134537,189.809998 
	C153.127914,190.372452 152.086746,190.873093 150.949875,191.460068 
	C157.045944,202.188370 163.086075,212.818207 169.443390,224.006271 
	C163.746704,224.006271 158.783203,224.221039 153.860596,223.867096 
	C152.496628,223.769012 150.789246,222.247284 150.033447,220.924911 
	C145.993561,213.856476 141.876495,206.796936 138.452515,199.424820 
	C136.382767,194.968475 133.731415,193.065750 128.942108,193.905884 
	C127.527824,194.153992 126.033203,193.944122 124.167892,193.944122 
	C124.167892,204.083054 124.167892,213.817490 124.167892,223.997864 
	C119.153877,223.997864 114.536125,224.064682 109.925179,223.917831 
	C109.311752,223.898285 108.732849,222.794250 108.134911,221.716461 
M124.104942,166.536362 
	C124.104942,171.291885 124.104942,176.047424 124.104942,181.573578 
	C130.658676,181.001892 136.687393,181.081314 142.415695,179.808563 
	C148.317764,178.497223 150.644974,173.886047 150.285751,167.099976 
	C149.994690,161.601883 147.439499,158.148987 141.491714,157.416229 
	C135.846130,156.720688 130.047592,157.266586 124.396149,157.266586 
	C124.255165,157.944580 124.136520,158.257187 124.133492,158.570908 
	C124.111061,160.897583 124.111610,163.224503 124.104942,166.536362 
z"/>
<path fill="#040404" opacity="1.000000" stroke="none" 
	d="
M36.544403,219.513672 
	C16.851828,206.282761 16.406401,168.277176 31.002151,153.113495 
	C36.264687,147.646194 42.559517,144.099625 49.991295,143.077362 
	C72.829727,139.935883 89.863564,153.402267 91.826141,176.454010 
	C92.383789,183.003830 92.166801,189.851669 90.898048,196.285370 
	C84.916969,226.614868 54.648708,231.473709 36.544403,219.513672 
M43.540596,162.075073 
	C35.041492,174.540924 35.437366,187.757645 40.775028,201.092133 
	C43.456905,207.791992 48.921856,211.586716 56.298523,211.700027 
	C63.898869,211.816818 69.357147,207.953857 72.409340,201.183090 
	C77.366066,190.187500 77.644249,178.814926 73.033768,167.710861 
	C67.800972,155.107956 54.325638,152.435638 43.540596,162.075073 
z"/>
<path fill="#040404" opacity="1.000000" stroke="none" 
	d="
M510.870850,224.257019 
	C498.270172,220.877533 490.936432,212.520187 487.225037,200.951447 
	C483.748535,190.114929 483.681641,179.000641 486.787994,168.006256 
	C491.224396,152.304153 503.119293,143.100677 519.150818,142.744919 
	C536.113464,142.368500 548.607727,150.786804 553.615540,166.557938 
	C557.446838,178.624084 557.292542,190.873077 552.949646,202.804947 
	C546.575684,220.316910 530.544800,228.480392 510.870850,224.257019 
M524.460999,156.806046 
	C515.588806,154.887985 507.821442,158.642532 504.200104,167.197464 
	C499.648438,177.950195 499.843567,188.967682 503.981323,199.793381 
	C506.763184,207.071625 512.114441,211.452454 520.170410,211.725861 
	C527.538696,211.975891 533.774109,207.627411 536.906799,199.805832 
	C540.961548,189.682266 541.075562,179.310684 537.488403,169.055649 
	C535.432068,163.177048 531.642212,158.650345 524.460999,156.806046 
z"/>
<path fill="#6EADF0" opacity="1.000000" stroke="none" 
	d="
M1186.775146,180.322540 
	C1185.367676,188.897461 1185.146240,197.489883 1182.231812,205.043304 
	C1176.287476,220.449921 1163.974121,225.636627 1150.462524,225.483688 
	C1134.905151,225.307571 1123.804565,217.635056 1118.469360,202.889359 
	C1113.279053,188.544312 1113.359375,174.081879 1120.422363,160.263733 
	C1127.270508,146.865891 1140.654053,140.881897 1157.663086,143.036438 
	C1170.289795,144.635864 1181.450439,155.199112 1184.911621,169.060547 
	C1185.794434,172.595596 1186.146484,176.263168 1186.775146,180.322540 
M1145.053467,210.803482 
	C1154.964600,212.966400 1161.905518,210.602325 1166.099243,202.185333 
	C1172.231445,189.877701 1172.227539,177.111008 1165.816284,164.834641 
	C1162.758911,158.980255 1157.207275,155.924515 1150.571777,156.175964 
	C1143.859131,156.430359 1138.375488,159.448044 1135.439819,165.841019 
	C1129.994141,177.700287 1130.115845,189.812561 1135.476318,201.490829 
	C1137.128540,205.090164 1141.313354,207.527008 1145.053467,210.803482 
z"/>
<path fill="#050505" opacity="1.000000" stroke="none" 
	d="
M443.056030,144.869827 
	C459.899261,147.769043 470.376587,158.422180 472.024841,174.863510 
	C472.681030,181.409149 472.706696,188.205170 471.725739,194.691559 
	C469.122131,211.907196 456.265381,223.013168 438.341888,223.879242 
	C429.552826,224.303940 420.726257,223.952820 411.597687,223.952820 
	C411.597687,197.432495 411.597687,171.066391 411.597687,144.811386 
	C421.894348,144.811386 432.260315,144.811386 443.056030,144.869827 
M433.400940,210.999817 
	C446.143280,210.641434 453.954773,204.200821 455.788940,192.082199 
	C456.404541,188.015045 456.528412,183.785049 456.212189,179.680695 
	C454.877838,162.360687 445.114258,154.842239 427.437622,157.438660 
	C427.437622,175.115860 427.437622,192.825668 427.437622,210.999893 
	C429.254456,210.999893 430.870422,210.999893 433.400940,210.999817 
z"/>
<path fill="#6DACF0" opacity="1.000000" stroke="none" 
	d="
M756.370850,144.355972 
	C777.636047,148.219177 788.081299,160.301361 787.971375,181.671799 
	C787.935242,188.702652 787.142456,196.094025 784.841858,202.672226 
	C780.190063,215.973663 769.321899,222.387238 755.835327,223.633331 
	C746.472534,224.498413 736.965149,223.799805 727.220947,223.799805 
	C727.220947,197.254623 727.220947,171.026260 727.220947,144.242294 
	C736.791870,144.242294 746.366455,144.242294 756.370850,144.355972 
M771.991760,181.637726 
	C771.781494,162.294388 758.942688,154.302460 743.230591,157.809616 
	C743.230591,175.386429 743.230591,192.953415 743.230591,210.466537 
	C760.210449,213.010788 770.791687,204.636078 771.891724,188.062790 
	C772.012817,186.238266 771.970215,184.402863 771.991760,181.637726 
z"/>
<path fill="#020202" opacity="1.000000" stroke="none" 
	d="
M262.221405,163.963898 
	C262.221405,167.946869 262.221405,171.436050 262.221405,175.336609 
	C272.288483,175.336609 282.165771,175.336609 292.527771,175.336609 
	C292.527771,165.070175 292.527771,154.692810 292.527771,144.162201 
	C297.963196,144.162201 302.920410,144.162201 308.163239,144.162201 
	C308.163239,170.611404 308.163239,197.005325 308.163239,223.701935 
	C303.264313,223.701935 298.363831,223.701935 292.757385,223.701935 
	C292.757385,212.474777 292.757385,201.110703 292.757385,189.504211 
	C282.313141,189.504211 272.569458,189.504211 262.436096,189.504211 
	C262.436096,200.926208 262.436096,212.174515 262.436096,223.711639 
	C257.129028,223.711639 252.200302,223.711639 246.776825,223.711639 
	C246.776825,197.468399 246.776825,171.114365 246.776825,144.377213 
	C251.519852,144.377213 256.563354,144.377213 262.221405,144.377213 
	C262.221405,150.645142 262.221405,157.057617 262.221405,163.963898 
z"/>
<path fill="#6DACF0" opacity="1.000000" stroke="none" 
	d="
M819.153931,190.672058 
	C819.734741,194.570938 819.988281,198.099426 820.950500,201.422729 
	C823.020935,208.573425 827.943115,212.059586 834.923889,211.823792 
	C842.061035,211.582703 847.309448,207.486450 848.822937,200.460999 
	C849.586304,196.917465 849.924744,193.222092 849.954224,189.591309 
	C850.075806,174.638474 850.005188,159.684067 850.005188,144.365692 
	C855.110535,144.365692 859.817078,144.365692 865.142944,144.365692 
	C865.142944,149.787689 865.149719,155.060928 865.141541,160.334137 
	C865.123901,171.653488 865.364075,182.981522 864.994568,194.289520 
	C864.683289,203.816162 862.347656,212.886032 854.540894,219.278076 
	C835.808350,234.616074 808.265442,223.454361 804.254700,198.930923 
	C803.694946,195.508118 803.788574,191.959976 803.777222,188.469208 
	C803.729553,173.860352 803.757141,159.251251 803.757141,144.322479 
	C808.995667,144.322479 813.727173,144.322479 819.147888,144.322479 
	C819.147888,159.710724 819.147888,174.959686 819.153931,190.672058 
z"/>
<path fill="#6EADF0" opacity="1.000000" stroke="none" 
	d="
M953.041870,224.005066 
	C950.459717,224.005081 948.351318,224.005081 945.608521,224.005081 
	C946.276611,221.546890 946.678955,219.797989 947.225708,218.095444 
	C954.756287,194.645462 962.384583,171.226303 969.756409,147.726624 
	C970.707886,144.693588 972.048706,143.777771 974.997192,143.950562 
	C979.802979,144.232178 985.846863,142.513382 989.095825,144.828201 
	C992.311340,147.119141 992.856506,153.312546 994.325378,157.873947 
	C1000.956360,178.465851 1007.503784,199.084671 1014.063416,219.699524 
	C1014.453796,220.926346 1014.687927,222.202927 1015.126221,223.993362 
	C1010.034729,223.993362 1005.390320,224.148773 1000.771973,223.870407 
	C999.773804,223.810226 998.358765,222.351852 998.010437,221.258759 
	C996.496399,216.508453 995.161987,211.687866 994.053345,206.826447 
	C993.416504,204.033920 992.078430,203.022614 989.222534,203.108688 
	C983.229065,203.289307 977.220459,203.321869 971.229797,203.099319 
	C968.046875,202.981079 966.739624,204.423492 966.104980,207.233475 
	C965.408875,210.315445 964.577209,213.370346 963.703247,216.407883 
	C961.515381,224.011780 961.492493,224.005188 953.041870,224.005066 
M978.299438,161.895950 
	C975.849243,171.425873 973.399109,180.955795 970.883179,190.741302 
	C977.271729,190.741302 983.019531,190.741302 989.528259,190.741302 
	C986.491272,179.327530 983.570984,168.352142 980.650635,157.376740 
	C980.311523,157.416656 979.972351,157.456573 979.633240,157.496490 
	C979.275208,158.713684 978.917236,159.930878 978.299438,161.895950 
z"/>
<path fill="#040404" opacity="1.000000" stroke="none" 
	d="
M604.914673,178.145050 
	C602.242126,181.719452 602.338318,184.594330 604.559387,188.294601 
	C610.633667,198.414322 616.153076,208.867355 621.876038,219.197372 
	C622.655212,220.603836 623.341736,222.061600 624.331177,224.006805 
	C618.806396,224.006805 613.852356,224.188828 608.929382,223.877930 
	C607.709534,223.800873 606.131226,222.363968 605.500122,221.146530 
	C601.521484,213.471375 597.768372,205.679443 593.928284,197.932251 
	C593.213318,196.489944 592.442200,195.075546 591.475769,193.224472 
	C586.947937,202.714554 582.577332,211.657776 578.433472,220.704865 
	C577.321289,223.132996 576.092773,224.284332 573.250916,224.083115 
	C569.113525,223.790161 564.939941,224.007919 560.070251,224.007919 
	C563.254150,218.058487 566.180908,212.531662 569.161804,207.034149 
	C572.967590,200.015411 576.988159,193.104950 580.522095,185.953079 
	C581.360535,184.256287 581.364868,181.406265 580.502136,179.730713 
	C575.097656,169.234634 569.336304,158.922424 563.700867,148.545074 
	C563.011414,147.275436 562.368652,145.980392 561.339539,143.992630 
	C566.922791,143.992630 571.844666,143.815781 576.737000,144.117538 
	C577.953064,144.192581 579.551086,145.572159 580.159729,146.766769 
	C583.782349,153.877396 587.158813,161.113266 590.636353,168.298172 
	C591.329773,169.730789 592.102783,171.124878 593.121033,173.077469 
	C597.685791,162.998810 601.963806,153.553162 606.236206,144.119965 
	C611.755554,144.119965 617.055298,144.119965 623.003601,144.119965 
	C616.899658,155.587250 610.989197,166.690994 604.914673,178.145050 
z"/>
<path fill="#6DACF0" opacity="1.000000" stroke="none" 
	d="
M689.999512,143.997818 
	C696.465759,143.997818 702.432129,143.997818 708.768555,143.997818 
	C708.768555,148.440582 708.768555,152.474792 708.768555,156.992065 
	C698.013184,156.992065 687.438416,156.992065 676.506287,156.992065 
	C676.506287,163.359146 676.506287,169.259262 676.506287,175.697800 
	C685.417542,175.697800 694.323364,175.697800 703.683533,175.697800 
	C703.683533,180.248062 703.683533,184.280579 703.683533,188.833344 
	C694.817810,188.833344 685.896973,188.833344 676.211060,188.833344 
	C676.211060,195.736877 676.059143,202.163086 676.397461,208.563400 
	C676.441223,209.391556 679.006653,210.712448 680.425293,210.740906 
	C690.061646,210.934296 699.703674,210.842026 709.791138,210.842026 
	C709.791138,215.231888 709.791138,219.264496 709.791138,223.656723 
	C693.725464,223.656723 677.658508,223.656723 660.882751,223.656723 
	C660.882751,197.295715 660.882751,170.967224 660.882751,143.997818 
	C670.295837,143.997818 679.897705,143.997818 689.999512,143.997818 
z"/>
<path fill="#6EADF0" opacity="1.000000" stroke="none" 
	d="
M902.151245,145.983459 
	C917.447388,139.884293 931.014282,142.247360 941.055054,152.927032 
	C938.562439,156.016922 936.016602,159.172760 933.339172,162.491714 
	C932.256165,161.900406 931.508423,161.593689 930.874390,161.131104 
	C918.235168,151.910217 904.153748,156.239929 899.061462,171.118240 
	C896.058105,179.893158 896.218872,188.838699 899.254639,197.587357 
	C904.170227,211.753510 918.534241,216.043182 930.603760,207.106674 
	C931.788330,206.229523 933.023254,205.420380 934.518066,204.383179 
	C937.263367,207.507263 939.852966,210.454102 942.570251,213.546234 
	C935.559021,222.498932 926.427795,226.249313 916.044373,225.349792 
	C893.754578,223.418823 881.245178,209.154037 880.820984,186.664871 
	C880.664795,178.384491 881.492554,170.360977 885.212036,162.857666 
	C888.878113,155.462051 894.419373,149.868271 902.151245,145.983459 
z"/>
<path fill="#040404" opacity="1.000000" stroke="none" 
	d="
M224.217987,157.257721 
	C219.626816,157.257568 215.490295,157.257568 210.847382,157.257568 
	C210.847382,179.379730 210.847382,201.425949 210.847382,223.736816 
	C205.425735,223.736816 200.500916,223.736816 194.891937,223.736816 
	C194.891937,201.828979 194.891937,179.813705 194.891937,157.191803 
	C186.998993,157.191803 179.764465,157.191803 172.339355,157.191803 
	C172.339355,152.636505 172.339355,148.691162 172.339355,144.367737 
	C192.488892,144.367737 212.692490,144.367737 233.063324,144.367737 
	C233.063324,148.464310 233.063324,152.587128 233.063324,157.257874 
	C230.221817,157.257874 227.447235,157.257874 224.217987,157.257721 
z"/>
<path fill="#6EADF0" opacity="1.000000" stroke="none" 
	d="
M1009.094116,150.036194 
	C1009.094238,147.937698 1009.094238,146.309372 1009.094238,144.340271 
	C1029.577515,144.340271 1049.592407,144.340271 1069.876221,144.340271 
	C1069.876221,148.515411 1069.876221,152.435669 1069.876221,156.915344 
	C1062.703003,156.915344 1055.649048,156.915344 1047.907959,156.915344 
	C1047.907959,179.465546 1047.907959,201.473755 1047.907959,223.735657 
	C1042.309937,223.735657 1037.410645,223.735657 1031.913208,223.735657 
	C1031.913208,221.698502 1031.914795,219.921799 1031.912964,218.145096 
	C1031.893555,199.504654 1031.779297,180.863464 1031.931396,162.224411 
	C1031.963013,158.345917 1030.916260,156.854446 1026.869995,157.082291 
	C1021.240540,157.399307 1015.579834,157.162064 1009.094055,157.162064 
	C1009.094055,154.669403 1009.094055,152.587875 1009.094116,150.036194 
z"/>
<path fill="#6EADF0" opacity="1.000000" stroke="none" 
	d="
M1099.146973,209.993668 
	C1099.146973,214.786713 1099.146973,219.081375 1099.146973,223.685959 
	C1093.747437,223.685959 1088.844482,223.685959 1083.554443,223.685959 
	C1083.554443,197.281967 1083.554443,171.033463 1083.554443,144.388657 
	C1088.459106,144.388657 1093.358398,144.388657 1099.146851,144.388657 
	C1099.146851,166.019211 1099.146851,187.757248 1099.146973,209.993668 
z"/>
<path fill="#FCFCFC" opacity="1.000000" stroke="none" 
	d="
M355.254700,211.025940 
	C349.608185,209.297699 345.944061,205.751343 343.918945,200.774246 
	C339.406403,189.683807 339.188385,178.410721 343.697418,167.273926 
	C346.597290,160.111694 352.308624,156.202301 359.958069,156.197388 
	C367.399567,156.192627 373.084473,160.000565 375.999786,166.887299 
	C380.908661,178.483368 380.846924,190.281616 375.461029,201.687164 
	C371.623016,209.814835 364.273560,212.975891 355.254700,211.025940 
z"/>
<path fill="#FBFBFB" opacity="1.000000" stroke="none" 
	d="
M124.104942,166.043854 
	C124.111610,163.224503 124.111061,160.897583 124.133492,158.570908 
	C124.136520,158.257187 124.255165,157.944580 124.396149,157.266586 
	C130.047592,157.266586 135.846130,156.720688 141.491714,157.416229 
	C147.439499,158.148987 149.994690,161.601883 150.285751,167.099976 
	C150.644974,173.886047 148.317764,178.497223 142.415695,179.808563 
	C136.687393,181.081314 130.658676,181.001892 124.104942,181.573578 
	C124.104942,176.047424 124.104942,171.291885 124.104942,166.043854 
z"/>
<path fill="#FBFBFB" opacity="1.000000" stroke="none" 
	d="
M43.800678,161.815796 
	C54.325638,152.435638 67.800972,155.107956 73.033768,167.710861 
	C77.644249,178.814926 77.366066,190.187500 72.409340,201.183090 
	C69.357147,207.953857 63.898869,211.816818 56.298523,211.700027 
	C48.921856,211.586716 43.456905,207.791992 40.775028,201.092133 
	C35.437366,187.757645 35.041492,174.540924 43.800678,161.815796 
z"/>
<path fill="#FBFBFB" opacity="1.000000" stroke="none" 
	d="
M524.855591,156.883575 
	C531.642212,158.650345 535.432068,163.177048 537.488403,169.055649 
	C541.075562,179.310684 540.961548,189.682266 536.906799,199.805832 
	C533.774109,207.627411 527.538696,211.975891 520.170410,211.725861 
	C512.114441,211.452454 506.763184,207.071625 503.981323,199.793381 
	C499.843567,188.967682 499.648438,177.950195 504.200104,167.197464 
	C507.821442,158.642532 515.588806,154.887985 524.855591,156.883575 
z"/>
<path fill="#FDFEFF" opacity="1.000000" stroke="none" 
	d="
M1144.696045,210.649826 
	C1141.313354,207.527008 1137.128540,205.090164 1135.476318,201.490829 
	C1130.115845,189.812561 1129.994141,177.700287 1135.439819,165.841019 
	C1138.375488,159.448044 1143.859131,156.430359 1150.571777,156.175964 
	C1157.207275,155.924515 1162.758911,158.980255 1165.816284,164.834641 
	C1172.227539,177.111008 1172.231445,189.877701 1166.099243,202.185333 
	C1161.905518,210.602325 1154.964600,212.966400 1144.696045,210.649826 
z"/>
<path fill="#FAFAFA" opacity="1.000000" stroke="none" 
	d="
M432.943665,210.999847 
	C430.870422,210.999893 429.254456,210.999893 427.437622,210.999893 
	C427.437622,192.825668 427.437622,175.115860 427.437622,157.438660 
	C445.114258,154.842239 454.877838,162.360687 456.212189,179.680695 
	C456.528412,183.785049 456.404541,188.015045 455.788940,192.082199 
	C453.954773,204.200821 446.143280,210.641434 432.943665,210.999847 
z"/>
<path fill="#FEFEFF" opacity="1.000000" stroke="none" 
	d="
M771.997620,182.105118 
	C771.970215,184.402863 772.012817,186.238266 771.891724,188.062790 
	C770.791687,204.636078 760.210449,213.010788 743.230591,210.466537 
	C743.230591,192.953415 743.230591,175.386429 743.230591,157.809616 
	C758.942688,154.302460 771.781494,162.294388 771.997620,182.105118 
z"/>
<path fill="#FAFCFF" opacity="1.000000" stroke="none" 
	d="
M978.429321,161.522003 
	C978.917236,159.930878 979.275208,158.713684 979.633240,157.496490 
	C979.972351,157.456573 980.311523,157.416656 980.650635,157.376740 
	C983.570984,168.352142 986.491272,179.327530 989.528259,190.741302 
	C983.019531,190.741302 977.271729,190.741302 970.883179,190.741302 
	C973.399109,180.955795 975.849243,171.425873 978.429321,161.522003 
z"/>
</svg>