<svg width="74" height="120" viewBox="0 0 74 120" fill="none" xmlns="http://www.w3.org/2000/svg">
<g clip-path="url(#clip0_4400_31779)">
<path d="M19.7168 64.4239L20.0279 65.4567C20.0442 65.5131 20.0778 65.5629 20.124 65.5986C20.1701 65.6344 20.2264 65.6543 20.2845 65.6555H54.0503C54.0932 65.6534 54.1345 65.6383 54.1687 65.612C54.203 65.5858 54.2285 65.5497 54.2421 65.5085C54.2557 65.4673 54.2566 65.4228 54.2448 65.3811C54.233 65.3393 54.209 65.3021 54.1759 65.2744L51.3539 62.9272C51.3539 62.9272 50.4096 64.4239 49.3834 64.4239H37.8279V59.8621H46.4959C46.5388 59.86 46.58 59.8448 46.6143 59.8186C46.6485 59.7923 46.6741 59.7562 46.6876 59.715C46.7012 59.6738 46.7022 59.6294 46.6903 59.5876C46.6785 59.5459 46.6545 59.5087 46.6214 59.481L43.9632 57.2718C43.9632 57.2718 43.0134 58.647 42.1455 58.647H37.8279V55.7255L35.5026 54.6816V58.647H27.1839L27.4951 59.6577C27.5115 59.7121 27.5447 59.7598 27.5899 59.7936C27.6352 59.8274 27.6899 59.8456 27.7461 59.8455H35.5026V64.4073L19.7168 64.4239Z" fill="#B6A18B"/>
<path d="M57.7393 52.334L54.8682 49.9868C54.8682 49.9868 53.8802 51.4227 52.8868 51.4227H45.245V41.0453H54.4261C54.4689 41.0432 54.5102 41.0281 54.5444 41.0018C54.5787 40.9756 54.6042 40.9395 54.6178 40.8983C54.6314 40.8571 54.6323 40.8127 54.6205 40.7709C54.6087 40.7291 54.5847 40.6919 54.5516 40.6642L51.8551 38.4551C51.8551 38.4551 50.7634 39.8027 49.8955 39.8027H45.2504V36.8756L42.9743 35.6992V39.8248H29.8631V36.8977L27.5433 35.7213V39.8248H18.1766L18.4713 40.8631C18.4868 40.92 18.5203 40.9702 18.5666 41.0061C18.6129 41.042 18.6695 41.0616 18.7279 41.0619H27.5487V51.4227H15.502L15.9004 52.5273C15.9194 52.5792 15.9536 52.6239 15.9985 52.6555C16.0434 52.6871 16.0968 52.7041 16.1515 52.704H27.0684C25.4636 56.5092 21.4571 59.8837 17.6853 61.2975L18.1657 61.9879C20.944 61.4908 27.9909 58.2047 30.1196 52.704H43.6347C45.6707 56.2552 48.6128 58.9117 53.3507 61.1208L56.3147 59.3424C52.7176 58.5085 47.7395 55.6698 45.2941 52.715H57.6411C57.6817 52.7083 57.7196 52.6898 57.7501 52.6617C57.7806 52.6336 57.8023 52.5972 57.8127 52.5569C57.8231 52.5165 57.8217 52.474 57.8087 52.4344C57.7957 52.3948 57.7716 52.3599 57.7393 52.334V52.334ZM43.0016 51.4448H29.8631V48.6226H42.9633L43.0016 51.4448ZM43.0016 47.391H29.8631V44.9223H42.9633L43.0016 47.391ZM43.0016 43.6908H29.8631V41.0453H42.9633L43.0016 43.6908Z" fill="#B6A18B"/>
<path d="M57.0896 30.9882C57.0241 30.9882 47.8703 29.8119 42.9687 25.4268L42.3027 25.979C42.3628 26.0232 46.7186 30.8005 54.9445 32.9212L57.0896 30.9882Z" fill="#B6A18B"/>
<path d="M26.9706 4.92599H33.5207V8.45508C33.5207 8.50634 33.5408 8.55551 33.5766 8.59176C33.6125 8.62801 33.6611 8.64838 33.7117 8.64838H40.1199V11.2772H32.0742C31.3209 11.2772 29.5142 10.1727 29.5142 10.1727V16.5957C29.5142 16.647 29.5343 16.6962 29.5701 16.7324C29.606 16.7687 29.6546 16.789 29.7052 16.789L40.1308 16.7614V17.2143C40.1308 17.8936 40.1036 18.5619 40.0544 19.2191H27.5L27.8494 20.2574C27.8673 20.3088 27.9006 20.3534 27.9445 20.385C27.9885 20.4167 28.041 20.4338 28.095 20.4341H39.918C39.795 21.3761 39.5717 22.302 39.252 23.1955H25.2402L25.5186 24.2338C25.534 24.2892 25.5669 24.3381 25.6122 24.373C25.6575 24.4079 25.7128 24.4269 25.7697 24.4271H38.728C37.1233 27.5806 33.8154 30.1046 27.2653 31.5074L27.3909 32.2474C35.5785 30.6845 39.3994 27.9396 41.0369 24.4271H58.5039C58.5461 24.4291 58.5878 24.4174 58.6229 24.3936C58.658 24.3697 58.6845 24.3351 58.6986 24.2948C58.7127 24.2545 58.7136 24.2107 58.7011 24.1699C58.6887 24.1291 58.6636 24.0934 58.6295 24.0681L56.0968 22.0633C56.0968 22.0633 55.3326 23.1679 54.4047 23.1679H41.5227C41.8147 22.271 42.0123 21.3454 42.1123 20.4065H55.5182C55.5601 20.4065 55.601 20.3933 55.6352 20.3687C55.6694 20.3442 55.6952 20.3095 55.709 20.2694C55.7228 20.2293 55.7239 20.1859 55.7122 20.1451C55.7005 20.1044 55.6766 20.0683 55.6437 20.042L53.2256 18.1311C53.2256 18.1311 52.5106 19.1915 51.5062 19.1915H42.2269C42.2269 18.7717 42.2269 18.3409 42.2269 17.9102V16.7614H52.3687C52.3935 16.7622 52.4182 16.7578 52.4414 16.7487C52.4645 16.7396 52.4856 16.7259 52.5034 16.7084C52.5212 16.6909 52.5354 16.6699 52.5451 16.6468C52.5547 16.6236 52.5597 16.5988 52.5597 16.5736V13.3152C52.5605 13.1924 52.592 13.0719 52.6512 12.9647C52.7103 12.8575 52.7953 12.7672 52.8981 12.7021L53.5586 12.2824C53.5845 12.2635 53.6056 12.2386 53.6202 12.2098C53.6348 12.181 53.6423 12.1491 53.6423 12.1167C53.6423 12.0844 53.6348 12.0525 53.6202 12.0237C53.6056 11.9949 53.5845 11.97 53.5586 11.951L51.2933 10.123C51.2933 10.123 50.349 11.2883 49.2737 11.2883H42.1778V8.64838H48.1165C48.1672 8.64838 48.2158 8.62801 48.2516 8.59176C48.2875 8.55551 48.3076 8.50634 48.3076 8.45508V4.92599H55.8839C55.925 4.92578 55.9651 4.91288 55.9987 4.88902C56.0324 4.86515 56.0581 4.83145 56.0723 4.79243C56.0866 4.75341 56.0887 4.71092 56.0784 4.67064C56.0682 4.63036 56.046 4.5942 56.0149 4.56701L53.4221 2.47938C53.4221 2.47938 52.4123 3.72754 51.7464 3.72754H48.4222V0.966126L46.2388 -0.0169369V3.70545H35.6986V0.999263L33.5152 -0.0224609V3.70545H26.4193L26.6976 4.71613C26.7106 4.77844 26.7454 4.83395 26.7955 4.87249C26.8456 4.91103 26.9077 4.93002 26.9706 4.92599V4.92599ZM40.1308 15.5243H31.6757V12.4702H40.1308V15.5243ZM50.4473 12.4536V15.5243H42.2596V12.4702L50.4473 12.4536ZM35.7095 4.90942H46.2388V7.43336H35.6986L35.7095 4.90942Z" fill="#B6A18B"/>
<path d="M16.0147 24.7593L15.4961 25.6871C15.4961 25.6871 19.5681 25.6871 18.8967 32.8668L21.1783 31.3756C21.171 29.5965 20.7993 27.8383 20.0866 26.2118C22.7372 22.2413 24.6703 17.8264 25.7962 13.1724L24.9556 12.6201C23.9237 16.4184 22.2786 20.0181 20.0866 23.2737C19.0714 24.8366 18.0834 24.9139 16.0147 24.7593Z" fill="#B6A18B"/>
<path d="M22.4069 7.65492L24.4047 4.99845C22.0594 3.64279 19.6225 2.45612 17.1122 1.44727L16.5664 2.27569C16.5664 2.27569 20.9659 4.29705 22.4069 7.65492Z" fill="#B6A18B"/>
<path d="M20.9435 14.3869L22.9413 11.7304C20.6411 10.3967 18.2454 9.23917 15.7744 8.26758L15.2285 9.096C15.2285 9.096 19.4916 11.029 20.9435 14.3869Z" fill="#B6A18B"/>
<path d="M37.003 79.5396C41.4298 75.1932 47.8161 73.6854 53.8204 73.6854H69.3169V9.15119L67.199 7.43359V71.5426H53.8204C46.4024 71.5426 40.1743 73.9505 37.003 76.7009C33.8425 73.9395 27.6036 71.5426 20.1855 71.5426H6.80692V7.43359L4.68359 9.15119V73.6854H20.1855C26.1898 73.6854 32.5926 75.1711 37.003 79.5396Z" fill="#B6A18B"/>
<path d="M37.0027 88.4981C38.8149 82.0916 44.9175 78.4244 53.8202 78.4244H74.0164V12.9347L71.893 11.2227V76.276H53.8202C46.1784 76.276 40.2014 78.8442 37.0027 83.511C33.8041 78.8442 27.8326 76.276 20.1853 76.276H2.12333V11.2227L0 12.9347V78.4244H20.1962C29.0989 78.4244 35.2014 82.0916 37.0136 88.4981H37.0027Z" fill="#B6A18B"/>
<path d="M20.3605 117.841C14.2744 117.841 9.86394 113.892 9.86394 106.132C9.86394 99.505 13.4774 94.7001 19.2634 94.7001C20.9026 94.7319 22.5112 95.1546 23.9586 95.9338C25.4059 96.713 26.6511 97.8268 27.5929 99.1846V95.755C25.1508 94.2208 22.3289 93.4185 19.4544 93.4409C11.4742 93.4409 5.45898 98.8312 5.45898 107.01C5.45898 114.908 11.0975 120 18.6629 120C20.4493 120.047 22.2266 119.729 23.8885 119.065C25.5504 118.4 27.0629 117.404 28.3353 116.134L27.7894 114.969C25.2622 117.244 23.1934 117.841 20.3605 117.841Z" fill="#B6A18B"/>
<path d="M59.0108 104.508L55.8503 103.564C52.3133 102.261 49.7642 101.968 49.7642 98.9468C49.7642 96.4892 52.417 94.3684 56.5326 94.3684C59.7258 94.3684 63.8306 96.7322 65.8775 99.0628L65.9212 98.0963V95.6497C63.7378 94.5451 60.2498 93.1865 57.0184 93.1865C50.8668 93.1865 46.6474 96.2848 46.6474 100.631C46.6474 103.741 49.2347 105.298 53.8689 106.878L57.0239 107.982C60.299 109.175 64.1963 110.479 64.1963 113.847C64.1963 116.244 61.4671 118.222 56.3307 118.222C53.0053 118.151 49.7861 117.024 47.1278 115.002L46.3145 116.04C48.9345 118.393 53.1593 119.983 56.3252 119.983C63.5249 119.989 67.5259 116.592 67.5259 112.174C67.5259 107.756 62.99 105.983 59.0108 104.508Z" fill="#B6A18B"/>
<path d="M40.3658 94.0098H34.0449C34.3855 94.2199 34.6678 94.5141 34.8654 94.8647C35.063 95.2154 35.1695 95.611 35.1748 96.0146V117.554C35.1694 117.958 35.0629 118.354 34.8653 118.706C34.6678 119.057 34.3856 119.352 34.0449 119.564H40.3658C40.0252 119.352 39.7429 119.057 39.5454 118.706C39.3478 118.354 39.2413 117.958 39.2359 117.554V96.0146C39.2412 95.611 39.3477 95.2154 39.5453 94.8647C39.7429 94.5141 40.0252 94.2199 40.3658 94.0098V94.0098Z" fill="#B6A18B"/>
</g>
<defs>
<clipPath id="clip0_4400_31779">
<rect width="74" height="120" fill="white"/>
</clipPath>
</defs>
</svg>
