<?xml version="1.0" standalone="no"?>
<!DOCTYPE svg PUBLIC "-//W3C//DTD SVG 20010904//EN"
 "http://www.w3.org/TR/2001/REC-SVG-20010904/DTD/svg10.dtd">
<svg version="1.0" xmlns="http://www.w3.org/2000/svg"
 width="1285.000000pt" height="262.000000pt" viewBox="0 0 1285.000000 262.000000"
 preserveAspectRatio="xMidYMid meet">

<g transform="translate(0.000000,262.000000) scale(0.100000,-0.100000)"
fill="#000000" stroke="none">
<path d="M450 1191 c-96 -31 -184 -114 -221 -209 -19 -49 -23 -76 -23 -187 0
-113 3 -138 23 -188 30 -76 75 -134 135 -174 61 -42 113 -56 203 -55 164 1
298 117 334 290 17 83 7 243 -20 314 -28 72 -98 151 -165 185 -43 23 -66 27
-146 30 -52 1 -106 -1 -120 -6z m176 -140 c84 -38 119 -115 119 -261 0 -97 -2
-110 -30 -165 -46 -91 -118 -128 -205 -105 -95 26 -145 124 -144 280 1 144 42
224 131 255 52 19 81 18 129 -4z"/>
<path d="M3454 1179 c-150 -57 -238 -233 -220 -435 21 -231 152 -366 356 -365
196 0 323 123 350 339 28 222 -57 401 -221 463 -68 26 -196 25 -265 -2z m185
-119 c43 -12 86 -52 114 -105 29 -56 36 -209 13 -289 -57 -193 -276 -206 -346
-20 -26 71 -28 208 -3 285 34 105 124 157 222 129z"/>
<path d="M5090 1191 c-118 -39 -203 -129 -236 -253 -18 -70 -18 -219 1 -292
43 -163 170 -267 327 -268 91 -1 143 13 204 55 60 40 105 98 135 174 20 50 23
75 23 188 0 155 -18 214 -91 295 -70 78 -127 103 -243 107 -52 1 -106 -1 -120
-6z m152 -131 c53 -15 92 -52 119 -112 31 -70 33 -216 5 -296 -22 -65 -72
-118 -126 -132 -128 -35 -226 66 -237 243 -9 143 35 249 121 288 47 21 67 23
118 9z"/>
<path d="M1070 791 l0 -401 80 0 80 0 0 150 0 150 58 0 57 0 80 -150 80 -150
88 0 c48 0 87 2 87 4 0 1 -40 74 -90 161 l-89 158 43 28 c60 38 97 103 103
182 10 119 -31 194 -129 238 -49 22 -69 24 -250 27 l-198 4 0 -401z m365 255
c42 -18 55 -42 55 -103 0 -90 -48 -123 -180 -123 l-80 0 0 120 0 120 85 0 c51
0 99 -6 120 -14z"/>
<path d="M1710 1125 l0 -64 113 -3 112 -3 3 -332 2 -333 80 0 80 0 0 335 0
335 110 0 110 0 0 65 0 65 -305 0 -305 0 0 -65z"/>
<path d="M2450 903 c0 -159 3 -339 7 -400 l6 -113 73 0 74 0 2 173 3 172 150
0 150 0 3 -172 2 -173 75 0 75 0 0 400 0 400 -75 0 -74 0 -3 -157 -3 -158
-150 0 -150 0 -3 158 -3 157 -79 0 -80 0 0 -287z"/>
<path d="M4100 791 l0 -401 148 0 c172 0 242 14 318 64 115 77 173 245 145
425 -15 94 -44 155 -103 213 -77 75 -130 90 -335 96 l-173 4 0 -401z m349 238
c54 -30 87 -85 100 -169 11 -66 3 -159 -17 -211 -31 -79 -116 -129 -219 -129
l-53 0 0 271 0 272 73 -5 c53 -3 86 -12 116 -29z"/>
<path d="M5706 999 c57 -104 104 -193 104 -197 0 -4 -49 -97 -109 -207 l-109
-200 81 -3 c44 -2 83 1 87 5 3 4 38 74 76 155 l69 147 76 -152 76 -152 87 -3
c47 -1 86 -1 86 2 0 3 -49 94 -110 203 l-109 197 61 116 c33 63 81 152 105
198 l45 82 -86 0 c-47 0 -86 -1 -86 -3 0 -2 -29 -68 -65 -147 l-64 -144 -71
147 -70 147 -89 0 -89 0 104 -191z"/>
</g>
</svg>
