<?xml version="1.0" standalone="no"?>
<!DOCTYPE svg PUBLIC "-//W3C//DTD SVG 20010904//EN"
 "http://www.w3.org/TR/2001/REC-SVG-20010904/DTD/svg10.dtd">
<svg version="1.0" xmlns="http://www.w3.org/2000/svg"
 width="1107.000000pt" height="225.000000pt" viewBox="0 0 1107.000000 225.000000"
 preserveAspectRatio="xMidYMid meet">

<g transform="translate(0.000000,225.000000) scale(0.100000,-0.100000)"
fill="#000000" stroke="none">
<path d="M364 1014 c-127 -45 -206 -199 -191 -372 16 -199 131 -316 308 -316
167 1 274 103 299 288 13 88 0 189 -32 256 -30 61 -98 125 -155 144 -58 20
-173 20 -229 0z m196 -123 c106 -76 119 -303 23 -403 -57 -59 -150 -61 -207
-3 -42 42 -61 108 -60 210 0 65 5 89 25 129 44 89 147 120 219 67z"/>
<path d="M2951 999 c-92 -46 -144 -126 -161 -249 -18 -124 15 -256 84 -337 15
-18 52 -44 83 -59 76 -37 193 -39 265 -5 123 59 189 204 174 379 -11 139 -86
250 -194 286 -25 9 -78 16 -117 16 -60 0 -82 -5 -134 -31z m224 -109 c102 -63
115 -310 20 -404 -82 -83 -208 -46 -250 73 -17 50 -20 178 -4 234 5 21 24 53
41 72 50 58 124 67 193 25z"/>
<path d="M4380 1021 c-76 -24 -147 -89 -183 -170 -26 -58 -35 -206 -17 -282
28 -124 119 -218 230 -239 211 -41 370 109 370 349 0 76 -16 156 -40 200 -28
53 -93 111 -146 131 -56 21 -163 26 -214 11z m160 -123 c32 -16 52 -36 70 -68
22 -40 25 -57 25 -150 0 -94 -3 -110 -25 -149 -36 -64 -70 -86 -135 -86 -98 0
-155 72 -163 207 -8 133 25 214 102 249 53 24 73 24 126 -3z"/>
<path d="M922 678 l3 -343 65 1 65 1 3 126 3 127 49 0 49 0 67 -122 c37 -68
68 -125 70 -127 4 -4 106 -5 141 -2 6 1 -23 63 -67 138 l-78 137 43 27 c103
65 117 240 26 322 -51 46 -106 57 -292 57 l-149 0 2 -342z m325 213 c37 -23
50 -66 33 -115 -16 -50 -52 -69 -142 -74 l-78 -5 0 107 0 106 78 0 c58 0 85
-5 109 -19z"/>
<path d="M1470 965 l0 -55 100 0 100 0 2 -286 3 -286 45 -3 c25 -2 55 -1 68 2
l22 5 0 284 0 284 95 0 95 0 0 55 0 55 -265 0 -265 0 0 -55z"/>
<path d="M2112 680 c2 -187 6 -341 9 -343 2 -2 32 -2 67 1 l62 4 0 144 0 144
130 0 129 0 3 -147 3 -148 65 2 65 1 3 341 2 341 -70 0 -70 0 0 -135 0 -135
-130 0 -130 0 0 135 0 135 -71 0 -72 0 5 -340z"/>
<path d="M3530 680 c0 -268 2 -340 12 -341 49 -5 282 4 308 11 91 26 168 103
196 198 18 59 18 206 0 266 -19 63 -58 118 -107 150 -61 41 -138 56 -281 56
l-127 0 -1 -340z m277 215 c83 -35 113 -91 113 -215 0 -159 -61 -230 -196
-230 l-54 0 0 230 0 230 50 0 c28 0 67 -7 87 -15z"/>
<path d="M4830 1017 c0 -2 40 -77 89 -167 l89 -163 -36 -66 c-20 -36 -62 -113
-93 -170 -32 -58 -56 -107 -54 -111 2 -3 32 -5 67 -5 l63 2 67 133 66 132 61
-128 c34 -71 66 -131 71 -134 7 -5 104 -5 142 -1 4 1 -32 70 -79 154 -47 83
-90 161 -95 172 -8 17 8 53 80 188 l90 167 -73 0 -72 0 -53 -120 c-30 -66 -57
-120 -60 -120 -3 0 -31 54 -63 120 l-56 120 -76 0 c-41 0 -75 -2 -75 -3z"/>
</g>
</svg>
